<?xml version="1.0" encoding="UTF-8" standalone="no"?>
<svg
   xmlns:dc="http://purl.org/dc/elements/1.1/"
   xmlns:cc="http://creativecommons.org/ns#"
   xmlns:rdf="http://www.w3.org/1999/02/22-rdf-syntax-ns#"
   xmlns:svg="http://www.w3.org/2000/svg"
   xmlns="http://www.w3.org/2000/svg"
   xmlns:sodipodi="http://sodipodi.sourceforge.net/DTD/sodipodi-0.dtd"
   xmlns:inkscape="http://www.inkscape.org/namespaces/inkscape"
   width="210mm"
   height="297mm"
   viewBox="0 0 210 297"
   version="1.1"
   id="svg8"
   inkscape:version="1.0.1 (3bc2e813f5, 2020-09-07)"
   sodipodi:docname="fender_outline1.svg">
  <defs
     id="defs2" />
  <sodipodi:namedview
     id="base"
     pagecolor="#ffffff"
     bordercolor="#666666"
     borderopacity="1.0"
     inkscape:pageopacity="0.0"
     inkscape:pageshadow="2"
     inkscape:zoom="30.933333"
     inkscape:cx="1.071043"
     inkscape:cy="-1.9978831"
     inkscape:document-units="mm"
     inkscape:current-layer="layer1"
     inkscape:document-rotation="0"
     showgrid="false"
     inkscape:window-width="1600"
     inkscape:window-height="837"
     inkscape:window-x="-8"
     inkscape:window-y="-8"
     inkscape:window-maximized="1"
     showguides="true" />
  <metadata
     id="metadata5">
    <rdf:RDF>
      <cc:Work
         rdf:about="">
        <dc:format>image/svg+xml</dc:format>
        <dc:type
           rdf:resource="http://purl.org/dc/dcmitype/StillImage" />
        <dc:title></dc:title>
      </cc:Work>
    </rdf:RDF>
  </metadata>
  <g
     inkscape:label="Livello 1"
     inkscape:groupmode="layer"
     id="layer1">
    <path
       id="path24"
       style="display:inline;fill:none;stroke:#ee252c;stroke-width:0.00434836;stroke-linecap:butt;stroke-linejoin:miter;stroke-miterlimit:10;stroke-dasharray:none;stroke-opacity:1"
       d="m -0.00474441,-0.27347675 v 0 l -0.0142363,-4.1484e-4 -0.007464,-0.001935 -0.008708,-0.003179 -0.008569,-0.00304 -0.005335,-0.002682 -0.005155,-0.003967 -0.007547,-0.006552 -0.007961,-0.00752 -0.006247,-0.006745 -0.0118081,-0.020101 -0.0113811,-0.0279669 -0.00881,-0.0336897 -0.004479,-0.0368312 0.009526,-0.0424579 0.0241977,-0.0457597 0.0277915,-0.0399544 0.0200487,-0.024748 0.0125824,-0.0153466 0.0116148,-0.0174198 0.009127,-0.0185256 0.005667,-0.0192125 -8.2957e-4,-0.0174153 -0.006910999,-0.0152038 -0.0119836014,-0.0126193 -0.01396,-0.0111957 -0.0203179,-0.006496 -0.0296978,7.1899e-4 -0.0356977,0.006332 -0.0387399,0.0107561 -0.0446539,0.0253033 -0.0490799,0.0418928 -0.0444055,0.0446322 -0.0305544,0.0335951 -0.034429,0.0499095 -0.0500215,0.0807695 -0.0476165,0.0787516 -0.0272384,0.044101 -0.0109239,0.0189402 -0.0143803,0.0257141 -0.0222615,0.0330423 -0.035257,0.0407857 -0.0587567,0.0435526 -0.0789306,0.0402461 -0.082581,0.0357665 -0.069737,0.0300846 -0.048248,0.02253895 -0.039815,0.02046445 -0.057373,0.03277032 -0.10083032,0.05954723 -0.104659,0.0866906 -0.059838,0.0911384 -0.027597,0.075821 -0.00807,0.0408685 -5.394e-4,0.0284954 0.0032,0.0377573 0.00503,0.0365548 0.00527,0.0246206 0.00716,0.0209855 0.012556,0.0291418 0.019387,0.0387368 0.027641,0.0497563 0.044591,0.0611767 0.066614,0.0749073 0.087448,0.0902124 0.10644492,0.10777155 0.1005814,0.092289 0.0767708,0.051892 0.0601279,0.027223 0.0518754,0.017033 0.0501875,0.00899 0.0601279,-4.283e-4 0.0610404,-0.00892 0.0528005,-0.016327 0.0273727,-0.014657 0.032213,-0.022262 0.0345626,-0.029311 0.034649,-0.03531 0.0241965,-0.028343 0.0235041,-0.029586 0.0225366,-0.0302766 0.020878,-0.0302766 0.0480863,-0.0879596 0.0449472,-0.10409363 0.0366391,-0.0949839 0.0232692,-0.0607928 0.0168696,-0.0329029 0.0201869,-0.0284798 0.0222725,-0.0247356 0.02341,-0.0216631 0.0201856,-0.0149334 0.0205988,-0.0120295 0.01824919,-0.009404 0.0111953,-0.00539 0.031659,-0.0136905 0.0528419,-0.0226467 0.0593677,-0.0280115 0.0515667,-0.0300047 0.0593106,-0.0490827 0.0417546,-0.0489418 0.0261333,-0.0454839 0.0124465,-0.0381551 9.703e-5,-0.0303198 -0.009573,-0.0233898 -0.0170327,-0.0157887 -0.020405,-0.0093478 -0.020456,-0.0011059 -0.0218429,0.0063625 -0.0232248,0.0116148 -0.0244702,0.0145187 -0.0262669,0.0149334 -0.0192166,0.008713 -0.0170004,0.005114 -0.0197656,0.005114 -0.0369556,0.002863 -0.0345935,-0.006388 -0.027566,-0.0109803 -0.0161715,-0.010643 -0.0211377,-0.0199795 -0.01714462,-0.0199089 -0.0127203,-0.01824888 -0.008708,-0.01423644 -0.007206,-0.02102698 -0.003041,-0.01962681 -0.001507,-0.01828606 0.15629955,-0.16139979 0.0781498,-0.0806999 0.0781498,-0.0806999 0.0781498,-0.0806999 0.0781498,-0.0806999 0.0781498,-0.0806999 0.0781498,-0.0806999 0.0779639,-0.0805208 0.0779639,-0.0805209 0.0779639,-0.0805209 0.0779639,-0.0805209 0.0779639,-0.080521 0.077964,-0.080521 0.1559278,-0.1610417 0.00396,-0.00295 0.00396,-0.00295 0.018664,-0.012859 0.02364,-0.014795 0.022395,-0.011062 0.023363,-0.00706 0.026542,-0.00581 0.024055,-0.0036 0.016033,-5.527e-4 0.010642,0.00235 0.010919,0.00263 0.0094,0.0011 0.00346,6.91e-4 0.011057,-0.011057 0.011058,-0.011058 0.011057,-0.011057 0.011057,-0.011057 0.00516,-0.0059 0.011152,-0.013726 0.015348,-0.020323 0.015762,-0.023503 0.017423,-0.029309 0.019081,-0.033179 0.015487,-0.027096 0.00581,-0.010781 0.00417,-0.00689 0.00954,-0.015342 0.011062,-0.016867 0.00851,-0.010836 0.00696,-0.00686 0.00565,-0.0054 0.00643,-0.00462 0.0065,-0.0018 0.00774,0.00221 0.00981,0.00428 0.010228,0.0047 0.00898,0.00346 0.010781,0.00249 0.015204,0.00138 0.017692,-0.00166 0.01783,-0.00705 0.01825,-0.011891 0.018388,-0.015348 0.015208,-0.018249 0.0083,-0.020737 0.00235,-0.022529 2.768e-4,-0.024603 -0.00617,-0.022755 -0.01438,-0.019909 -0.018638,-0.016095 -0.017654,-0.012126 -0.017968,-0.00691 -0.016724,-0.0029 -0.012025,-9.675e-4 -0.018382,0.00373 -0.038294,0.01618 -0.071217,0.036347 -0.1184739,0.062921 -0.1297263,0.068811 -0.1046188,0.055483 -0.042995,0.022816 -0.00389,0.00164 -0.00926,0.00456 -0.011748,0.0076 -0.00725,0.00658 -0.00401,0.00705 -0.00318,0.00788 -0.0011,0.00718 -5.529e-4,0.00774 0.00138,0.00691 0.00138,0.00691 4.145e-4,0.00594 1.811e-4,0.00231 m 0,0 2.764e-4,0.00581 v 0.011057 l -0.00428,0.015065 -0.011477,0.016176 -0.1458128,0.1418045 -0.0729063,0.070902 -0.0729063,0.070902 -0.0729098,0.070906 -0.0729099,0.070906 -0.0729098,0.0709058 -0.0729098,0.0709059 -0.10965545,0.10664928 -0.10965545,0.10664929 -0.10965545,0.10664928 -0.10965545,0.10664929 -0.21326277,0.2074854 -0.0969339,0.0944157 -0.0320983,0.0315012 0.002765,0.0110573 0.0125282,0.0235854 0.0213618,0.02965465 0.027887,0.03065128 0.0308033,0.02803902 0.0305116,0.02221874 0.0245806,0.01352347 0.0129923,0.0019352 0.0138083,-0.01384426 0.0224357,-0.02319033 v 0"
       sodipodi:nodetypes="ccccccccccccccccccccccccccccccccccccccccccccccccccccccccccccccccccccccccccccccccccccccccccccccccccccccccccccccccccccccccccccccccccccccccccccccccccccccccccccccccccccccccccccccccccccccccccccccccccccccccccccccccccccccccccccccccccccccccccccccccccc" />
  </g>
</svg>
